<svg width="129" height="49" viewBox="0 0 129 49" fill="none" xmlns="http://www.w3.org/2000/svg">
<path d="M29.0003 26.0117L27.2061 30.4955L25.8879 33.6617L19.6081 48.614H14.848L0 0.353027H7.37823L17.759 34.2656L19.0589 38.2553L17.7407 41.4947H17.3196L16.2211 37.7795L5.51079 2.76882H3.36872L6.11496 12.0111L16.1479 44.3314L16.6971 46.1982H17.9421L24.4965 30.4955L25.8146 27.3294L27.6821 22.9187L29.0003 26.0117ZM44.1412 48.6872H41.4499L27.8286 17.3917L20.2306 35.5101L9.57522 0.353027H12.1933L20.5053 27.915L27.8286 11.1143L44.1412 48.6872ZM46.1368 48.0649L45.5143 46.6923L30.1171 10.913L27.9201 5.88007L20.8165 22.2782L19.718 18.6179L27.0413 1.67073H28.8355L45.7523 40.8176L49.7619 27.8052L56.8105 4.80028L57.433 2.80542H50.4026L44.5989 21.6742L43.1526 18.2336L48.5169 0.38963L60.7102 0.407932L46.1368 48.0649ZM31.0874 1.68903H33.7787L43.5554 24.2181L45.0017 27.6588L52.0504 4.65387H54.6685L45.3862 34.7598L31.0874 1.68903Z" fill="white"/>
<path d="M69.864 31.4106L69.8457 48.6323L58.1284 48.614L58.165 0.389648H60.655L60.6183 46.1433H67.3741L67.3924 28.9216L83.522 28.9399V26.6705L67.4656 26.6522V24.1632L86.0119 24.1815V31.4106H69.864ZM65.1954 2.89695L65.1588 44.2399H62.7421L62.797 0.40795L89.3989 0.426251L89.3806 12.1392L72.1525 12.1209V9.63188L86.909 9.65018V2.89695H65.1954ZM85.9936 19.5879V22.1318L67.3924 22.1135L67.4107 4.89181L84.7852 4.91011V7.3991L69.9006 7.3808L69.8823 19.5696L85.9936 19.5879Z" fill="white"/>
<path d="M111.754 48.6689C103.204 48.6689 95.3494 43.9655 91.0103 36.4619C88.8133 32.6735 87.7148 28.7387 87.7148 24.6025C87.7148 15.9825 92.5482 7.80179 99.7983 3.59246C103.46 1.52439 107.451 0.499512 111.79 0.499512C117.795 0.499512 123.581 2.78719 127.975 6.85012C128.176 6.92332 128.323 7.05143 128.524 7.27105L129 7.82009L127.279 9.61363L126.309 8.64366C122.391 4.98337 117.209 2.98851 111.772 2.98851C104.046 2.98851 96.9605 7.10634 93.0792 13.7864C91.1385 17.1538 90.1865 20.7409 90.1681 24.6025C90.1681 32.3257 94.2875 39.4267 100.97 43.2883C104.284 45.2283 107.854 46.1799 111.717 46.1982C116.404 46.1982 119.992 44.8988 125.851 41.1104L125.869 25.2614L110.783 25.2431V22.7541L128.286 22.7724L128.268 42.4098L127.792 42.8308C121.677 47.0218 117.264 48.6872 111.754 48.6689ZM111.754 43.9838C104.87 43.9838 98.4618 40.2503 94.9466 34.2474C93.2256 31.2826 92.3285 28.0432 92.3285 24.6025C92.3285 17.648 96.1366 11.0961 102.069 7.72858C105.034 6.00825 108.275 5.18468 111.79 5.18468C115.726 5.18468 119.516 6.42918 123.16 8.84497L124.954 10.2176L125.851 11.1144L120.889 16.4767L118.692 14.7563C116.697 13.3105 114.353 12.5419 111.809 12.5419C107.671 12.5419 103.606 14.8845 101.464 18.5264C100.366 20.3932 99.7983 22.388 99.7983 24.5842C99.7983 28.7203 102.142 32.7833 105.785 34.9245C107.653 36.0226 109.648 36.59 111.772 36.59C113.493 36.59 115.086 36.2422 116.532 35.4919V34.3938H110.82V27.366L123.709 27.3843L123.691 39.6463L122.098 40.8908C118.985 43.0321 115.818 44.0021 111.754 43.9838ZM111.79 7.69198C105.73 7.69198 100.146 10.913 97.107 16.1473C95.5874 18.7644 94.8368 21.5828 94.8185 24.6208C94.8185 30.6786 98.0407 36.2056 103.277 39.2254C105.895 40.7444 108.714 41.4948 111.754 41.5131C115.122 41.5131 118.161 40.6163 120.706 38.896L121.182 38.475V29.855H113.255V31.9231H118.967V37.0841L118.271 37.4318C116.001 38.5299 113.786 39.079 111.717 39.079C106.755 39.079 101.666 36.169 99.1758 31.7584C97.8759 29.6171 97.2534 27.2013 97.2534 24.5842C97.2534 19.35 100.018 14.5916 104.504 12.0477C106.719 10.7483 109.117 10.1261 111.735 10.1261C114.701 10.1261 117.521 11.0228 120.066 12.7432L120.542 13.0909L122.189 11.2974L121.64 10.8764C118.747 8.79007 115.434 7.69198 111.79 7.69198Z" fill="white"/>
</svg>
